PathFileType  4	(X/Y/Z) C:\Users\antoi\Documents\MyRepositories\mobilecap\ResultsAnalysis
DataRate	CameraRate	NumFrames	NumMarkers	Units	OrigDataRate	OrigDataStartFrame	OrigNumFrames
100.0	100.0	4	51	mm	100.0	67	132
Frame#	Time	r_knee			r_shank_antsup			r_ankle			r_calc			r_5meta			r_toe			L_knee			L_shank_antsup			L_ankle			L_calc			L_5meta			L_toe			r_sh2			r_sh3			r_sh4			L_sh2			L_sh3			r_thigh1			r_thigh2			r_thigh3			r_thigh4			r_thigh5			L_thigh1			L_thigh2			L_thigh3			L_thigh4			r.ASIS			r.PSIS			L.ASIS			L.PSIS			C7			R_Shoulder			L_Shoulder			R_Sternum			L_Sternum			R_humerus			R_elbow_med			R_elbow_lat			R_forearm			R_wrist_radius			R_wrist_ulna			L_humerus			L_elbow_med			L_elbow_lat			L_forearm			L_wrist_radius			L_wrist_ulna			R_HJC			L_HJC			R_HJC_reg			L_HJC_reg			
		X1	Y1	Z1	X2	Y2	Z2	X3	Y3	Z3	X4	Y4	Z4	X5	Y5	Z5	X6	Y6	Z6	X7	Y7	Z7	X8	Y8	Z8	X9	Y9	Z9	X10	Y10	Z10	X11	Y11	Z11	X12	Y12	Z12	X13	Y13	Z13	X14	Y14	Z14	X15	Y15	Z15	X16	Y16	Z16	X17	Y17	Z17	X18	Y18	Z18	X19	Y19	Z19	X20	Y20	Z20	X21	Y21	Z21	X22	Y22	Z22	X23	Y23	Z23	X24	Y24	Z24	X25	Y25	Z25	X26	Y26	Z26	X27	Y27	Z27	X28	Y28	Z28	X29	Y29	Z29	X30	Y30	Z30	X31	Y31	Z31	X32	Y32	Z32	X33	Y33	Z33	X34	Y34	Z34	X35	Y35	Z35	X36	Y36	Z36	X37	Y37	Z37	X38	Y38	Z38	X39	Y39	Z39	X40	Y40	Z40	X41	Y41	Z41	X42	Y42	Z42	X43	Y43	Z43	X44	Y44	Z44	X45	Y45	Z45	X46	Y46	Z46	X47	Y47	Z47	X48	Y48	Z48	X49	Y49	Z49	X50	Y50	Z50	X51	Y51	Z51	

67	0.66000000	646.24535	458.65435	-54.25385	626.21779	378.94542	-69.22531	328.81234	216.01264	-100.94187	276.32975	253.58690	-149.07289	327.50430	95.80655	-64.65937	386.19334	68.67580	-109.74939	819.51332	494.17888	-353.44009	862.45580	401.59719	-357.28597	823.58077	94.91639	-316.20704	762.10839	62.88674	-262.10930	924.79041	42.97993	-362.78903	973.37147	68.50949	-311.26587	524.20276	323.86504	-55.48215	581.70900	445.98234	-48.35613	486.07408	387.23601	-57.92341	773.38684	405.58294	-355.67917	779.75582	283.95465	-356.07870	743.87048	766.21996	-40.49604	731.39451	654.93307	-41.56169	621.38845	659.91081	-34.39211	630.78996	775.79214	-24.70062	673.01291	637.73039	-18.30715	769.46937	758.01447	-407.90496	818.66201	630.90696	-382.82253	664.90873	719.66969	-371.01085	720.15090	591.33661	-353.15131	770.48459	939.37583	-77.99677	583.63132	983.67929	-163.39957	781.74081	940.82447	-328.66741	578.03467	993.72289	-263.71620	565.52298	1386.52089	-222.44238	679.80711	1366.19655	-50.62112	631.01924	1357.01200	-403.88135	708.32876	1370.65347	-211.23831	710.25712	1371.14819	-255.56697	715.04742	1234.45029	7.40314	706.50106	1014.42375	-36.26536	724.50510	1033.39287	31.07947	849.95933	964.63683	25.22675	950.33334	875.93497	8.03977	934.47488	852.43658	29.83060	618.50087	1240.72467	-458.53038	565.31670	1019.09241	-364.37424	542.06962	1040.55859	-437.57259	559.84575	934.48971	-474.43920	524.03220	779.38037	-494.77961	492.92087	792.34579	-497.90117	691.53543	862.17993	-108.32198	699.46630	869.14334	-314.51346	707.48051	857.73874	-117.06820	698.30219	874.21205	-281.59248	
68	0.67000000	671.41418	457.53918	-52.98898	650.61326	378.76850	-68.07421	349.14471	224.88210	-101.74991	298.99605	265.33051	-150.76639	341.91898	105.19403	-64.91527	399.77377	74.92253	-109.05574	826.02143	494.08532	-355.33216	867.63019	400.54876	-359.19965	823.90079	94.92886	-316.21191	762.21514	63.00232	-262.14677	924.85525	42.78814	-363.13641	973.45067	67.78025	-311.41540	546.93615	326.75079	-55.08132	607.97764	447.04017	-47.21811	510.79691	391.12048	-58.07647	778.66583	406.10412	-357.26627	783.07211	284.20719	-357.04835	758.87145	767.51712	-40.83942	750.00948	655.88921	-40.29338	639.79682	657.79809	-34.64532	645.48282	773.79688	-26.56620	691.76379	637.04851	-17.87273	779.91738	758.80068	-410.17890	826.98371	630.73512	-385.23970	674.55158	721.96428	-373.05221	728.06488	592.97798	-355.04014	782.02229	939.55382	-79.77987	595.50477	983.64160	-164.69383	793.95692	942.36244	-330.52412	590.16109	994.73166	-265.00676	577.95761	1387.54813	-224.89491	690.66600	1367.29859	-52.01869	645.17872	1358.03493	-405.79781	720.53288	1371.77150	-212.35314	722.83879	1372.24270	-256.66063	724.71956	1235.22619	6.21135	714.05531	1015.28455	-37.27535	731.87774	1034.13193	30.17735	855.77444	962.61174	25.80129	954.25015	871.53284	9.81382	937.52922	848.40000	31.30885	634.80184	1241.30707	-460.74702	582.89698	1018.97168	-367.59784	561.00193	1039.91613	-441.28672	581.75718	934.19420	-477.78189	549.83160	778.34481	-498.97747	518.65413	790.60718	-502.66558	703.58935	862.23059	-110.53641	711.66561	870.54709	-316.66632	719.58260	857.26636	-119.94771	710.82235	875.44734	-284.39579	
69	0.68000000	696.48519	457.21455	-51.93042	675.36936	379.29875	-67.24539	370.74121	233.12668	-102.90645	321.94946	275.48098	-152.76235	359.25120	114.49859	-65.16972	416.44819	81.92175	-108.49159	831.82754	493.91593	-357.02138	872.22154	399.55283	-360.86559	824.07589	94.96893	-316.24672	762.31163	63.12573	-262.17306	924.89882	42.62123	-363.40465	973.46744	67.18763	-311.55036	570.22636	330.03149	-55.00981	634.41493	448.61924	-46.47511	535.92946	395.24797	-58.41244	783.35162	406.58917	-358.63660	786.04716	284.47440	-357.86057	773.38834	769.25646	-40.98287	768.20678	657.26734	-39.17276	657.78823	656.38041	-35.07768	659.79495	772.19983	-28.44320	709.99040	636.95123	-17.50941	789.78968	759.44748	-412.26519	834.67080	630.42170	-387.45029	683.68467	724.23561	-374.77292	735.38423	594.56905	-356.66806	793.33765	939.52352	-81.37336	607.12074	983.68959	-165.84239	805.95482	943.85462	-332.23863	602.05049	995.77251	-266.17121	590.20191	1388.64349	-227.29072	701.31601	1368.42839	-53.31768	659.37395	1359.04130	-407.64744	732.60880	1372.89144	-213.37274	735.33573	1373.31730	-257.63879	734.17488	1236.03966	5.12190	721.43842	1016.20072	-38.22387	739.10583	1034.93219	29.31902	861.31397	960.63035	26.43582	957.74225	867.12648	11.73900	940.17066	844.40204	32.98829	651.28295	1241.86983	-462.84152	600.55747	1018.82485	-370.89296	580.26743	1039.25899	-445.07147	604.15101	933.97068	-481.08816	576.36729	777.46235	-503.14470	545.09790	789.00658	-507.43081	715.31008	862.19139	-112.64928	723.56659	871.95205	-318.70791	731.29969	856.83970	-122.60178	722.99068	876.63935	-287.00826	
70	0.69000000	721.36529	457.80194	-51.07321	700.40685	380.55681	-66.73638	393.55304	240.52665	-104.31296	345.15144	283.95244	-154.87689	379.49022	123.23099	-65.47909	436.18919	89.15750	-108.24951	837.10864	493.73637	-358.44298	876.39682	398.65339	-362.20225	824.17201	95.05409	-316.28604	762.39950	63.25484	-262.18904	924.92986	42.47565	-363.59951	973.45955	66.70501	-311.64905	594.01934	333.63184	-55.23456	660.85351	450.74704	-46.19200	561.33161	399.51618	-58.91041	787.59084	407.05688	-359.84549	788.82414	284.77942	-358.54570	787.46127	771.53155	-41.01921	786.00186	659.16916	-38.25584	675.38105	655.72933	-35.80167	673.74090	771.09445	-30.41483	727.71326	637.51279	-17.30145	799.16592	759.98796	-414.10025	841.85564	630.04778	-389.35871	692.46392	726.47148	-376.18484	742.23196	596.11980	-358.01503	804.54232	939.43296	-82.77718	618.52877	983.95266	-166.91589	817.76156	945.27339	-333.80919	613.72710	996.90117	-267.28312	602.26773	1389.83742	-229.61655	711.75021	1369.60179	-54.50408	673.58590	1360.03868	-409.42737	744.54445	1374.05632	-214.29847	747.72410	1374.40950	-258.50094	743.37154	1236.89531	4.15923	728.67433	1017.17699	-39.15339	746.16143	1035.78882	28.47203	866.57359	958.70634	27.11667	960.82769	862.75135	13.80450	942.40250	840.49131	34.83610	667.92813	1242.42674	-464.78999	618.30338	1018.65286	-374.26683	599.85556	1038.61775	-448.90863	626.99190	933.85427	-484.33686	603.60047	776.79162	-507.24373	572.20473	787.59235	-512.16859	726.74242	862.21204	-114.61797	735.20191	873.34945	-320.60410	742.70169	856.59163	-124.94789	734.83559	877.80145	-289.35629	
